<?xml version="1.0" encoding="UTF-8" standalone="no"?>
<!-- Created with Inkscape (http://www.inkscape.org/) -->

<svg
   version="1.1"
   id="svg1"
   width="133.38083"
   height="146.60344"
   viewBox="0 0 133.38083 146.60344"
   sodipodi:docname="amount_misinfo.svg"
   inkscape:version="1.3.2 (1:1.3.2+202311252150+091e20ef0f)"
   xmlns:inkscape="http://www.inkscape.org/namespaces/inkscape"
   xmlns:sodipodi="http://sodipodi.sourceforge.net/DTD/sodipodi-0.dtd"
   xmlns="http://www.w3.org/2000/svg"
   xmlns:svg="http://www.w3.org/2000/svg">
  <defs
     id="defs1">
    <clipPath
       clipPathUnits="userSpaceOnUse"
       id="clipPath4">
      <path
         d="M 39.2,33.590625 H 214.18258 V 116.75063 H 39.2 Z"
         id="path4" />
    </clipPath>
    <clipPath
       clipPathUnits="userSpaceOnUse"
       id="clipPath6">
      <path
         d="M 39.2,33.590625 H 214.18258 V 116.75063 H 39.2 Z"
         id="path6" />
    </clipPath>
    <clipPath
       clipPathUnits="userSpaceOnUse"
       id="clipPath8">
      <path
         d="M 39.2,33.590625 H 214.18258 V 116.75063 H 39.2 Z"
         id="path8" />
    </clipPath>
    <clipPath
       clipPathUnits="userSpaceOnUse"
       id="clipPath10">
      <path
         d="M 39.2,33.590625 H 214.18258 V 116.75063 H 39.2 Z"
         id="path10" />
    </clipPath>
    <clipPath
       clipPathUnits="userSpaceOnUse"
       id="clipPath12">
      <path
         d="M 39.2,33.590625 H 214.18258 V 116.75063 H 39.2 Z"
         id="path12" />
    </clipPath>
    <clipPath
       clipPathUnits="userSpaceOnUse"
       id="clipPath14">
      <path
         d="M 39.2,33.590625 H 214.18258 V 116.75063 H 39.2 Z"
         id="path14" />
    </clipPath>
    <clipPath
       clipPathUnits="userSpaceOnUse"
       id="clipPath16">
      <path
         d="M 39.2,33.590625 H 214.18258 V 116.75063 H 39.2 Z"
         id="path16" />
    </clipPath>
    <clipPath
       clipPathUnits="userSpaceOnUse"
       id="clipPath25">
      <path
         d="M 39.2,33.590625 H 214.18258 V 116.75063 H 39.2 Z"
         id="path25" />
    </clipPath>
    <clipPath
       clipPathUnits="userSpaceOnUse"
       id="clipPath27">
      <path
         d="M 39.2,33.590625 H 214.18258 V 116.75063 H 39.2 Z"
         id="path27" />
    </clipPath>
    <clipPath
       clipPathUnits="userSpaceOnUse"
       id="clipPath29">
      <path
         d="M 39.2,33.590625 H 214.18258 V 116.75063 H 39.2 Z"
         id="path29" />
    </clipPath>
    <clipPath
       clipPathUnits="userSpaceOnUse"
       id="clipPath31">
      <path
         d="M 39.2,33.590625 H 214.18258 V 116.75063 H 39.2 Z"
         id="path31" />
    </clipPath>
    <clipPath
       clipPathUnits="userSpaceOnUse"
       id="clipPath33">
      <path
         d="M 39.2,33.590625 H 214.18258 V 116.75063 H 39.2 Z"
         id="path33" />
    </clipPath>
    <clipPath
       clipPathUnits="userSpaceOnUse"
       id="clipPath35">
      <path
         d="M 39.2,33.590625 H 214.18258 V 116.75063 H 39.2 Z"
         id="path35" />
    </clipPath>
    <clipPath
       clipPathUnits="userSpaceOnUse"
       id="clipPath37">
      <path
         d="M 39.2,33.590625 H 214.18258 V 116.75063 H 39.2 Z"
         id="path37" />
    </clipPath>
    <clipPath
       clipPathUnits="userSpaceOnUse"
       id="clipPath49">
      <path
         d="M 220.30697,33.590625 H 290.3 v 83.160005 h -69.99303 z"
         id="path49" />
    </clipPath>
    <clipPath
       clipPathUnits="userSpaceOnUse"
       id="clipPath51">
      <path
         d="M 220.30697,33.590625 H 290.3 v 83.160005 h -69.99303 z"
         id="path51" />
    </clipPath>
    <clipPath
       clipPathUnits="userSpaceOnUse"
       id="clipPath53">
      <path
         d="M -1021,-463 H 1794 V 1233 H -1021 Z"
         transform="translate(4.8688889e-5)"
         id="path53" />
    </clipPath>
    <clipPath
       clipPathUnits="userSpaceOnUse"
       id="clipPath56">
      <path
         d="M -1021,-463 H 1794 V 1233 H -1021 Z"
         transform="translate(7.8099998e-5)"
         id="path56" />
    </clipPath>
    <clipPath
       clipPathUnits="userSpaceOnUse"
       id="clipPath63">
      <path
         d="M 220.30697,33.590625 H 290.3 v 83.160005 h -69.99303 z"
         id="path63" />
    </clipPath>
    <clipPath
       clipPathUnits="userSpaceOnUse"
       id="clipPath65">
      <path
         d="M 220.30697,33.590625 H 290.3 v 83.160005 h -69.99303 z"
         id="path65" />
    </clipPath>
    <clipPath
       clipPathUnits="userSpaceOnUse"
       id="clipPath67">
      <path
         d="M 220.30697,33.590625 H 290.3 v 83.160005 h -69.99303 z"
         id="path67" />
    </clipPath>
    <clipPath
       clipPathUnits="userSpaceOnUse"
       id="clipPath69">
      <path
         d="M 220.30697,33.590625 H 290.3 v 83.160005 h -69.99303 z"
         id="path69" />
    </clipPath>
    <clipPath
       clipPathUnits="userSpaceOnUse"
       id="clipPath71">
      <path
         d="M 220.30697,33.590625 H 290.3 v 83.160005 h -69.99303 z"
         id="path71" />
    </clipPath>
    <clipPath
       clipPathUnits="userSpaceOnUse"
       id="clipPath73">
      <path
         d="M 220.30697,33.590625 H 290.3 v 83.160005 h -69.99303 z"
         id="path73" />
    </clipPath>
  </defs>
  <sodipodi:namedview
     id="namedview1"
     pagecolor="#ffffff"
     bordercolor="#666666"
     borderopacity="1.0"
     inkscape:showpageshadow="2"
     inkscape:pageopacity="0.0"
     inkscape:pagecheckerboard="0"
     inkscape:deskcolor="#d1d1d1"
     inkscape:zoom="2.4370254"
     inkscape:cx="-75.296712"
     inkscape:cy="71.603685"
     inkscape:window-width="1920"
     inkscape:window-height="1019"
     inkscape:window-x="1"
     inkscape:window-y="1080"
     inkscape:window-maximized="1"
     inkscape:current-layer="g1">
    <inkscape:page
       x="0"
       y="0"
       inkscape:label="1"
       id="page1"
       width="133.38083"
       height="146.60344"
       margin="0"
       bleed="0" />
  </sodipodi:namedview>
  <g
     id="g1"
     inkscape:groupmode="layer"
     inkscape:label="1"
     transform="translate(-293.20929,-12.601334)">
    <path
       id="path47"
       d="M 220.30697,33.590625 H 290.3 v 83.160005 h -69.99303 z"
       style="fill:#ffffff;fill-opacity:1;fill-rule:nonzero;stroke:none"
       transform="matrix(1.3333333,0,0,-1.3333333,0,168.80217)" />
    <path
       id="path48"
       d="m 227.91491,33.590625 h 24.3454 v 5.023256 h -24.3454 z"
       style="fill:#7570b3;fill-opacity:1;fill-rule:nonzero;stroke:none"
       transform="matrix(1.3333333,0,0,-1.3333333,0,168.80217)"
       clip-path="url(#clipPath49)" />
    <path
       id="path50"
       d="m 258.34666,33.590625 h 24.3454 V 112.2883 h -24.3454 z"
       style="fill:#1b9e77;fill-opacity:1;fill-rule:nonzero;stroke:none"
       transform="matrix(1.3333333,0,0,-1.3333333,0,168.80217)"
       clip-path="url(#clipPath51)" />
    <path
       id="path52"
       d="m 240.08761,33.590625 v -3.5"
       style="fill:#000000;fill-opacity:1;fill-rule:nonzero;stroke:#000000;stroke-width:0.8;stroke-linecap:butt;stroke-linejoin:round;stroke-miterlimit:10;stroke-dasharray:none;stroke-opacity:1"
       transform="matrix(1.3333333,0,0,-1.3333333,0,168.80217)" />
    <g
       id="g54">
      <path
         d="m 666,739 c 9,0 18,-5 27,-14 6,-8 11,-21 14,-39 8,0 14,-1 18,-2 10,-4 17,-9 22,-13 4,-4 7,-10 7,-17 0,-13 -3,-22 -8,-27 -79,-72 -156,-158 -232,-260 48,-66 96,-126 144,-179 6,-6 9,-12 9,-20 0,-16 -5,-29 -15,-37 -7,-6 -16,-9 -28,-9 -1,-6 -4,-14 -8,-25 -8,-20 -17,-29 -27,-29 -12,0 -23,4 -32,12 -3,-6 -7,-11 -11,-14 -12,-9 -23,-13 -31,-13 -8,0 -16,4 -24,13 C 462,97 428,144 389,206 313,121 261,57 233,13 227,4 221,0 215,0 h -1 c -6,0 -12,6 -17,18 -6,10 -9,17 -9,21 -6,-4 -12,-6 -18,-6 -8,0 -17,5 -26,15 -12,11 -18,19 -18,25 0,8 5,20 15,35 -4,1 -7,4 -9,8 -6,8 -9,16 -9,24 0,6 4,15 12,25 42,57 95,120 159,189 -40,62 -76,136 -108,223 -8,20 -11,34 -11,44 0,8 4,20 12,36 4,10 10,16 18,16 8,0 20,-7 36,-19 0,4 2,11 6,19 7,16 14,24 20,24 14,0 23,-4 27,-12 34,-64 76,-127 125,-187 75,86 153,164 234,235 4,4 8,6 13,6 z"
         style="fill:#000000;fill-opacity:1;fill-rule:nonzero;stroke:none"
         transform="matrix(0.012,0,0,-0.012,315.08556,142.473)"
         clip-path="url(#clipPath53)"
         id="path54" />
    </g>
    <path
       id="path55"
       d="m 270.51936,33.590625 v -3.5"
       style="fill:#000000;fill-opacity:1;fill-rule:nonzero;stroke:#000000;stroke-width:0.8;stroke-linecap:butt;stroke-linejoin:round;stroke-miterlimit:10;stroke-dasharray:none;stroke-opacity:1"
       transform="matrix(1.3333333,0,0,-1.3333333,0,168.80217)" />
    <g
       id="g57">
      <path
         d="m 221,388 c 12,0 22,-11 29,-32 13,-39 22,-58 28,-58 4,0 8,3 13,10 91,134 176,229 254,287 32,24 64,36 96,36 41,0 66,-2 75,-4 3,-2 5,-6 5,-12 0,-6 -4,-14 -11,-22 C 500,352 376,196 336,124 322,99 290,87 241,87 c -16,0 -33,4 -51,13 -8,3 -21,28 -39,74 -24,58 -35,109 -35,153 0,16 11,29 34,39 31,14 54,22 70,22 z"
         style="fill:#000000;fill-opacity:1;fill-rule:nonzero;stroke:none"
         transform="matrix(0.012,0,0,-0.012,355.66123,142.473)"
         clip-path="url(#clipPath56)"
         id="path57" />
    </g>
    <text
       id="text57"
       xml:space="preserve"
       transform="matrix(1.3333333,0,0,1.3333333,301.19631,156.43133)"><tspan
         style="font-variant:normal;font-weight:normal;font-size:10px;font-family:'DejaVu Sans';writing-mode:lr-tb;fill:#000000;fill-opacity:1;fill-rule:nonzero;stroke:none"
         x="0 4.6412501 8.7512503 15.09125 20.30125 24.221251 32.401249 38.521252 42.631248 46.55125 52.891251"
         y="0"
         sodipodi:role="line"
         id="tspan57">Trustworthy</tspan></text>
    <path
       id="path58"
       d="m 290.3,33.590625 h 3.5"
       style="fill:#000000;fill-opacity:1;fill-rule:nonzero;stroke:#000000;stroke-width:0.8;stroke-linecap:butt;stroke-linejoin:round;stroke-miterlimit:10;stroke-dasharray:none;stroke-opacity:1"
       transform="matrix(1.3333333,0,0,-1.3333333,0,168.80217)" />
    <text
       id="text58"
       xml:space="preserve"
       transform="matrix(1.3333333,0,0,1.3333333,396.4,128.57717)"><tspan
         style="font-variant:normal;font-weight:normal;font-size:9px;font-family:'DejaVu Sans';writing-mode:lr-tb;fill:#000000;fill-opacity:1;fill-rule:nonzero;stroke:none"
         x="0"
         y="0"
         id="tspan58">0</tspan></text>
    <path
       id="path59"
       d="m 290.3,54.520858 h 3.5"
       style="fill:#000000;fill-opacity:1;fill-rule:nonzero;stroke:#000000;stroke-width:0.8;stroke-linecap:butt;stroke-linejoin:round;stroke-miterlimit:10;stroke-dasharray:none;stroke-opacity:1"
       transform="matrix(1.3333333,0,0,-1.3333333,0,168.80217)" />
    <text
       id="text59"
       xml:space="preserve"
       transform="matrix(1.3333333,0,0,1.3333333,396.4,100.67019)"><tspan
         style="font-variant:normal;font-weight:normal;font-size:9px;font-family:'DejaVu Sans';writing-mode:lr-tb;fill:#000000;fill-opacity:1;fill-rule:nonzero;stroke:none"
         x="0 5.724"
         y="0"
         sodipodi:role="line"
         id="tspan59">25</tspan></text>
    <path
       id="path60"
       d="m 290.3,75.45109 h 3.5"
       style="fill:#000000;fill-opacity:1;fill-rule:nonzero;stroke:#000000;stroke-width:0.8;stroke-linecap:butt;stroke-linejoin:round;stroke-miterlimit:10;stroke-dasharray:none;stroke-opacity:1"
       transform="matrix(1.3333333,0,0,-1.3333333,0,168.80217)" />
    <text
       id="text60"
       xml:space="preserve"
       transform="matrix(1.3333333,0,0,1.3333333,396.4,72.763213)"><tspan
         style="font-variant:normal;font-weight:normal;font-size:9px;font-family:'DejaVu Sans';writing-mode:lr-tb;fill:#000000;fill-opacity:1;fill-rule:nonzero;stroke:none"
         x="0 5.724"
         y="0"
         sodipodi:role="line"
         id="tspan60">50</tspan></text>
    <path
       id="path61"
       d="m 290.3,96.381323 h 3.5"
       style="fill:#000000;fill-opacity:1;fill-rule:nonzero;stroke:#000000;stroke-width:0.8;stroke-linecap:butt;stroke-linejoin:round;stroke-miterlimit:10;stroke-dasharray:none;stroke-opacity:1"
       transform="matrix(1.3333333,0,0,-1.3333333,0,168.80217)" />
    <text
       id="text61"
       xml:space="preserve"
       transform="matrix(1.3333333,0,0,1.3333333,396.4,44.856236)"><tspan
         style="font-variant:normal;font-weight:normal;font-size:9px;font-family:'DejaVu Sans';writing-mode:lr-tb;fill:#000000;fill-opacity:1;fill-rule:nonzero;stroke:none"
         x="0 5.724"
         y="0"
         sodipodi:role="line"
         id="tspan61">75</tspan></text>
    <text
       id="text62"
       xml:space="preserve"
       transform="matrix(0,-1.3333333,1.3333333,0,423.81667,120.283)"><tspan
         style="font-variant:normal;font-weight:normal;font-size:10px;font-family:'DejaVu Sans';writing-mode:lr-tb;fill:#000000;fill-opacity:1;fill-rule:nonzero;stroke:none"
         x="0 7.48 13.63 21.809999 27.02 30.200001 36.549999 42.669998 47.880001 51.799999 57.009998 60.189999 64.089996 73.589996"
         y="0"
         sodipodi:role="line"
         id="tspan62">News posts (%)</tspan></text>
    <path
       id="path62"
       d="m 240.08761,38.111555 v 1.004651"
       style="fill:none;stroke:#000000;stroke-width:1.5;stroke-linecap:butt;stroke-linejoin:round;stroke-miterlimit:10;stroke-dasharray:none;stroke-opacity:1"
       transform="matrix(1.3333333,0,0,-1.3333333,0,168.80217)"
       clip-path="url(#clipPath63)" />
    <path
       id="path64"
       d="m 270.51936,111.78597 v 1.00466"
       style="fill:none;stroke:#000000;stroke-width:1.5;stroke-linecap:butt;stroke-linejoin:round;stroke-miterlimit:10;stroke-dasharray:none;stroke-opacity:1"
       transform="matrix(1.3333333,0,0,-1.3333333,0,168.80217)"
       clip-path="url(#clipPath65)" />
    <path
       id="path66"
       d="m 242.08761,38.111555 h -4"
       style="fill:#000000;fill-opacity:1;fill-rule:nonzero;stroke:#000000;stroke-width:1;stroke-linecap:butt;stroke-linejoin:round;stroke-miterlimit:10;stroke-dasharray:none;stroke-opacity:1"
       transform="matrix(1.3333333,0,0,-1.3333333,0,168.80217)"
       clip-path="url(#clipPath67)" />
    <path
       id="path68"
       d="m 272.51936,111.78597 h -4"
       style="fill:#000000;fill-opacity:1;fill-rule:nonzero;stroke:#000000;stroke-width:1;stroke-linecap:butt;stroke-linejoin:round;stroke-miterlimit:10;stroke-dasharray:none;stroke-opacity:1"
       transform="matrix(1.3333333,0,0,-1.3333333,0,168.80217)"
       clip-path="url(#clipPath69)" />
    <path
       id="path70"
       d="m 242.08761,39.116206 h -4"
       style="fill:#000000;fill-opacity:1;fill-rule:nonzero;stroke:#000000;stroke-width:1;stroke-linecap:butt;stroke-linejoin:round;stroke-miterlimit:10;stroke-dasharray:none;stroke-opacity:1"
       transform="matrix(1.3333333,0,0,-1.3333333,0,168.80217)"
       clip-path="url(#clipPath71)" />
    <path
       id="path72"
       d="m 272.51936,112.79063 h -4"
       style="fill:#000000;fill-opacity:1;fill-rule:nonzero;stroke:#000000;stroke-width:1;stroke-linecap:butt;stroke-linejoin:round;stroke-miterlimit:10;stroke-dasharray:none;stroke-opacity:1"
       transform="matrix(1.3333333,0,0,-1.3333333,0,168.80217)"
       clip-path="url(#clipPath73)" />
    <path
       id="path74"
       d="M 290.3,33.590625 V 116.75063"
       style="fill:none;stroke:#000000;stroke-width:0.8;stroke-linecap:square;stroke-linejoin:miter;stroke-miterlimit:10;stroke-dasharray:none;stroke-opacity:1"
       transform="matrix(1.3333333,0,0,-1.3333333,0,168.80217)" />
    <path
       id="path75"
       d="M 220.30697,33.590625 H 290.3"
       style="fill:none;stroke:#000000;stroke-width:0.8;stroke-linecap:square;stroke-linejoin:miter;stroke-miterlimit:10;stroke-dasharray:none;stroke-opacity:1"
       transform="matrix(1.3333333,0,0,-1.3333333,0,168.80217)" />
  </g>
</svg>
